:SAMPLES-PER-SECOND 30
:FULLY-SPECIFIED
:DEGREES
617
root  44.4442 38.4146 4.0822 -29.4894 85.2688 -22.6833
RightUpLeg  -2.64233 -8.66195 2.97122
RightLeg  23.0439 1.83813 1.15157
RightFoot  -11.4664 -0.0846753 -6.59873
RightToes  3.49245e-010 0 -3.6325e-017
Spine  8.66777 -1.66146 12.1331
Spine1  8.82286 0.400145 -2.58171
HEad  -7.12186 6.28388 -6.15969
LeftShoulder1  0.186424 2.98934 -30.1092
LeftArm  -2.21372 0.366338 -45.6191
LeftForeArm  18.6295 -14.7674 -6.36161
LeftHand  -0.0384823 5.01199 4.60494
RightShoulder  -0.3672 -4.73907 22.7204
RightArm  7.0552 0.933681 43.011
RightForeArm  8.14358 32.1575 6.63133
RightHand  -0.434955 3.06724 -6.19511
LeftUpLeg  -19.1017 3.02237 5.01361
LeftLeg  48.1998 -1.18591 -1.02494
LeftFoot  -2.31023 0.213242 -2.53888
LeftToes  -2.21735e-009 9.83027e-011 -4.04511e-011
618
root  45.6714 38.5292 4.25341 -26.1377 84.8442 -18.8528
RightUpLeg  1.01016 -8.33275 2.56129
RightLeg  20.9787 1.93732 1.21196
RightFoot  -12.3677 -0.143537 -6.70409
RightToes  3.49245e-010 0 -3.6325e-017
Spine  8.55943 -1.6197 11.8591
Spine1  8.7752 0.458516 -3.50381
HEad  -7.85021 7.09607 -6.08593
LeftShoulder1  0.14229 3.10977 -30.0107
LeftArm  -2.00587 1.42164 -44.4084
LeftForeArm  16.9271 -16.2807 -5.75482
LeftHand  -0.012382 5.78693 4.1134
RightShoulder  -0.396392 -4.82342 23.0994
RightArm  6.19889 2.25116 42.2081
RightForeArm  8.54866 35.274 7.44878
RightHand  -0.357762 2.06531 -5.75381
LeftUpLeg  -18.9466 4.37499 4.85722
LeftLeg  37.3943 -1.33169 -0.709188
LeftFoot  -1.95582 0.337676 -3.95196
LeftToes  -2.21735e-009 9.83027e-011 -4.04511e-011
619
root  46.8549 38.5637 4.4113 -25.9136 84.4008 -18.5265
RightUpLeg  4.05263 -8.0924 2.48119
RightLeg  19.187 2.08704 1.26217
RightFoot  -13.3801 -0.20777 -6.60376
RightToes  3.49245e-010 0 -3.6325e-017
Spine  8.25374 -1.43739 11.5751
Spine1  8.64714 0.491408 -3.85402
HEad  -8.6675 7.68384 -6.29822
LeftShoulder1  0.173666 3.0212 -30.0194
LeftArm  -2.47868 2.24025 -43.4466
LeftForeArm  15.751 -17.3322 -5.27931
LeftHand  -0.0249418 5.41225 4.16516
RightShoulder  -0.352779 -4.69269 22.5556
RightArm  4.83714 2.88305 41.8389
RightForeArm  7.93752 38.5726 8.45019
RightHand  -0.385894 2.05575 -6.21003
LeftUpLeg  -18.3959 6.24621 4.84903
LeftLeg  25.4257 -1.81475 -0.596573
LeftFoot  -1.1327 0.479557 -5.29959
LeftToes  -2.21735e-009 9.83027e-011 -4.04511e-011
620
root  48.0407 38.5826 4.59204 -27.4735 84.1332 -19.8662
RightUpLeg  7.5538 -7.82835 2.52942
RightLeg  16.7516 2.03108 1.27254
RightFoot  -14.1933 -0.252859 -6.29891
RightToes  3.49245e-010 0 -3.6325e-017
Spine  7.39865 -1.19364 10.2363
Spine1  9.68931 0.241371 -2.89673
HEad  -8.28504 8.59125 -6.42302
LeftShoulder1  0.0804779 3.2776 -30.4492
LeftArm  -2.84001 2.20775 -42.6041
LeftForeArm  14.1945 -17.8336 -5.10899
LeftHand  -0.042553 4.87183 4.84733
RightShoulder  -0.264335 -4.42301 21.4908
RightArm  3.2299 3.87264 42.1178
RightForeArm  7.93972 41.1293 9.26748
RightHand  -0.376903 1.44497 -6.54803
LeftUpLeg  -17.0725 7.15941 4.91751
LeftLeg  13.1696 -0.817498 -0.097769
LeftFoot  -0.876817 0.511167 -5.52286
LeftToes  -2.21735e-009 9.83027e-011 -4.04511e-011
621
root  49.1975 38.5279 4.74733 -31.2524 83.7805 -23.8396
RightUpLeg  10.3796 -7.3905 3.0628
RightLeg  14.6355 1.71212 1.15782
RightFoot  -15.0467 -0.298163 -6.06191
RightToes  3.49245e-010 0 -3.6325e-017
Spine  6.05921 -1.07361 10.4707
Spine1  10.7262 0.558752 -4.33731
HEad  -8.49378 8.64586 -5.50281
LeftShoulder1  0.275328 2.71484 -28.657
LeftArm  -4.52966 2.78403 -43.2075
LeftForeArm  13.9027 -18.4742 -4.7279
LeftHand  -0.0553014 4.68225 5.30774
RightShoulder  -0.357773 -4.71819 22.4534
RightArm  2.29116 5.21784 41.5892
RightForeArm  8.03047 43.268 10.0201
RightHand  -0.400693 1.83182 -6.61807
LeftUpLeg  -15.9403 6.68142 5.66339
LeftLeg  1.95073 2.88292 -0.298142
LeftFoot  -0.99324 0.494789 -5.40235
LeftToes  -2.21735e-009 9.83027e-011 -4.04511e-011
622
root  50.4446 38.319 4.87247 -34.4899 83.3512 -27.2201
RightUpLeg  12.724 -7.16407 3.51767
RightLeg  13.9984 1.59753 1.02858
RightFoot  -16.6671 -0.384466 -5.84815
RightToes  3.49245e-010 0 -3.6325e-017
Spine  5.3461 -0.954102 9.36718
Spine1  10.7779 0.259281 -3.36034
HEad  -8.51613 9.36358 -5.17724
LeftShoulder1  0.228978 2.84861 -28.8904
LeftArm  -4.85308 2.93194 -42.1228
LeftForeArm  12.3184 -19.562 -4.54475
LeftHand  -0.124997 3.35319 6.45132
RightShoulder  -0.327622 -4.62783 22.0537
RightArm  1.66657 5.69801 41.5862
RightForeArm  8.107 45.9403 11.0166
RightHand  -0.412689 1.51302 -7.09561
LeftUpLeg  -15.8307 6.60557 6.13964
LeftLeg  -4.63438 6.69728 -0.806014
LeftFoot  -1.97499 0.582057 -6.98369
LeftToes  -2.21735e-009 9.83027e-011 -4.04511e-011
623
root  51.7402 37.9857 4.96808 -42.3394 83.4102 -34.8304
RightUpLeg  15.2284 -7.22574 4.05506
RightLeg  14.1741 1.00177 0.874248
RightFoot  -18.7196 -0.464323 -5.23682
RightToes  3.49245e-010 0 -3.6325e-017
Spine  5.03884 -1.11164 8.48367
Spine1  10.9278 -0.145526 -2.64962
HEad  -9.16611 10.0489 -4.47453
LeftShoulder1  0.28083 2.67956 -27.9352
LeftArm  -6.21193 2.92183 -41.9495
LeftForeArm  12.7145 -21.347 -4.22444
LeftHand  -0.0939016 3.94774 6.18265
RightShoulder  -0.361891 -4.72085 22.708
RightArm  1.25325 7.47799 41.621
RightForeArm  6.72845 46.6216 11.3958
RightHand  -0.4072 2.26847 -6.37042
LeftUpLeg  -16.8706 6.66013 6.33245
LeftLeg  -4.55139 7.80978 -0.830826
LeftFoot  -2.89256 0.613284 -8.05749
LeftToes  -2.21735e-009 9.83027e-011 -4.04511e-011
